<?xml version="1.0" encoding="UTF-8" standalone="no"?>
<!-- Created with Inkscape (http://www.inkscape.org/) -->

<svg
   xmlns:dc="http://purl.org/dc/elements/1.1/"
   xmlns:cc="http://creativecommons.org/ns#"
   xmlns:rdf="http://www.w3.org/1999/02/22-rdf-syntax-ns#"
   xmlns:svg="http://www.w3.org/2000/svg"
   xmlns="http://www.w3.org/2000/svg"
   xmlns:sodipodi="http://sodipodi.sourceforge.net/DTD/sodipodi-0.dtd"
   xmlns:inkscape="http://www.inkscape.org/namespaces/inkscape"
   width="210mm"
   height="297mm"
   viewBox="0 0 210 297"
   version="1.1"
   id="svg8"
   inkscape:version="0.92.5 (2060ec1f9f, 2020-04-08)"
   sodipodi:docname="bunnySkull.svg">
  <defs
     id="defs2" />
  <sodipodi:namedview
     id="base"
     pagecolor="#ffffff"
     bordercolor="#666666"
     borderopacity="1.0"
     inkscape:pageopacity="0.0"
     inkscape:pageshadow="2"
     inkscape:zoom="0.35"
     inkscape:cx="-458.31271"
     inkscape:cy="216.56534"
     inkscape:document-units="mm"
     inkscape:current-layer="layer1"
     showgrid="false"
     inkscape:window-width="1366"
     inkscape:window-height="691"
     inkscape:window-x="0"
     inkscape:window-y="45"
     inkscape:window-maximized="1" />
  <metadata
     id="metadata5">
    <rdf:RDF>
      <cc:Work
         rdf:about="">
        <dc:format>image/svg+xml</dc:format>
        <dc:type
           rdf:resource="http://purl.org/dc/dcmitype/StillImage" />
        <dc:title />
      </cc:Work>
    </rdf:RDF>
  </metadata>
  <g
     inkscape:label="Layer 1"
     inkscape:groupmode="layer"
     id="layer1">
    <path
       style="fill:#000000;stroke-width:0.26458335"
       d="m 103.13016,202.30926 c -0.0993,-0.16064 -0.16871,-1.41665 -0.15428,-2.79113 0.0212,-2.01558 -0.0478,-2.49907 -0.35634,-2.49907 -0.2511,0 -0.4108,0.34098 -0.46469,0.99219 -0.0801,0.96748 -0.10848,0.99219 -1.14045,0.99219 -1.035103,0 -1.060163,-0.0221 -1.141433,-1.00859 -0.0522,-0.63306 -0.19993,-0.96964 -0.39688,-0.90399 -0.17258,0.0575 -0.31378,0.27326 -0.31378,0.47942 0,0.2261 -0.32747,0.4067 -0.82533,0.45515 -0.63437,0.0617 -0.85645,-0.0387 -0.95987,-0.43416 -0.11466,-0.43849 -0.3066,-0.4951 -1.29932,-0.38321 -1.759884,0.19837 -3.031884,-0.43769 -3.665024,-1.83269 -0.28318,-0.62394 -0.51749,-1.39245 -0.52069,-1.70781 -0.0182,-1.78985 -1.573169,-3.75797 -4.813728,-6.09247 -0.970865,-0.69941 -2.731407,-1.96755 -3.912314,-2.81808 -2.455257,-1.76836 -5.280195,-5.04997 -6.29887,-7.31712 -0.403857,-0.89881 -0.694481,-2.11276 -0.760113,-3.175 -0.05844,-0.94588 -0.280795,-2.79135 -0.49412,-4.10104 -1.015146,-6.2324 -1.288788,-12.74897 -0.715164,-17.03111 0.27908,-2.08335 0.56065,-2.94905 1.764128,-5.42395 0.787625,-1.61972 1.503863,-3.30994 1.591641,-3.75605 0.219998,-1.1181 -0.565214,-2.04557 -2.599881,-3.07089 -4.677232,-2.35697 -5.745998,-3.45242 -12.735566,-13.05352 -4.953586,-6.80441 -8.028712,-12.92012 -9.843765,-19.57699 -0.916548,-3.36152 -0.968487,-8.20897 -0.115266,-10.757809 0.677971,-2.02532 1.666157,-3.28027 2.358595,-2.99532 0.249143,0.10253 0.988769,0.33444 1.643613,0.51536 4.563907,1.26091 7.668484,3.08276 12.567708,7.375089 8.453639,7.40645 15.655513,17.96781 18.134291,26.5935 0.833718,2.90118 1.998591,6.08464 2.371892,6.48209 0.116435,0.12397 0.729399,0.10055 1.362139,-0.052 0.63273,-0.15259 1.74574,-0.40545 2.47335,-0.56192 0.7276,-0.15647 2.275414,-0.49024 3.439584,-0.74171 1.71246,-0.36992 3.405063,-0.45326 8.863543,-0.43646 6.88678,0.0212 9.34884,0.26558 13.81405,1.37122 l 1.77551,0.43963 0.66451,-0.62426 c 0.36547,-0.34335 0.85653,-1.28484 1.09124,-2.09221 1.73662,-5.97377 6.59628,-14.92296 10.65142,-19.61485 0.19127,-0.22131 1.04366,-1.27875 1.8942,-2.34987 1.57053,-1.97783 5.99272,-6.25827 7.67991,-7.43372 0.50932,-0.35484 2.0354,-1.46573 3.3913,-2.46864 3.76769,-2.786849 7.91913,-4.589159 12.33417,-5.354779 2.2304,-0.38678 2.39045,-0.38322 2.83167,0.063 0.79133,0.80021 1.62542,5.169959 1.4286,7.484359 -0.18219,2.1425 -0.81526,5.21272 -1.16917,5.67022 -0.2104,0.27198 -0.53463,0.86027 -3.35171,6.08143 -0.70002,1.2974 -3.11548,4.92881 -5.36771,8.06979 -2.25222,3.14097 -4.81141,6.7229 -5.68709,7.95983 -0.87568,1.23692 -2.0609,2.81717 -2.63383,3.51165 -1.33414,1.61721 -5.33574,5.18041 -8.02158,7.14279 -1.14897,0.83947 -2.41512,1.81488 -2.81367,2.16757 l -0.72464,0.64126 0.91237,1.80117 c 1.22632,2.42095 1.65714,5.1248 1.84685,11.59076 0.16271,5.54566 -0.20682,15.00651 -0.64015,16.3894 -0.13934,0.44469 -0.55732,1.82055 -0.92883,3.05748 -1.19641,3.98337 -1.73711,4.76237 -5.38956,7.765 -1.79704,1.47733 -4.1009,3.37158 -5.11968,4.20946 -1.86764,1.53599 -2.90884,2.79399 -3.26053,3.9394 -0.10514,0.34243 -0.2819,0.74166 -0.39281,0.88718 -0.11091,0.14552 -0.27941,0.62177 -0.37444,1.05834 -0.28098,1.29072 -1.01933,2.0166 -2.42576,2.38478 -1.08688,0.28453 -1.39471,0.2796 -1.88502,-0.0302 -0.78973,-0.49894 -0.8692,-0.47395 -0.8692,0.2734 0,0.395 -0.19002,0.70394 -0.49189,0.79975 -0.76311,0.2422 -1.3602,-0.11347 -1.3602,-0.81023 0,-0.34823 -0.11906,-0.63315 -0.26458,-0.63315 -0.14552,0 -0.26641,0.44649 -0.26863,0.99219 -0.005,1.33025 -0.29513,1.71373 -1.21529,1.60869 -0.71045,-0.0811 -0.77079,-0.17702 -0.84568,-1.34411 -0.13514,-2.10604 -0.58058,-1.40023 -0.58443,0.92604 -0.005,3.30664 -0.0601,3.41438 -1.6842,3.31994 l -1.35489,-0.0788 -0.0754,-2.71198 c -0.0689,-2.47678 -0.11969,-2.71198 -0.58606,-2.71198 -0.46637,0 -0.5172,0.2352 -0.58606,2.71198 l -0.0754,2.71198 -1.36541,0.0791 c -0.79507,0.0461 -1.44081,-0.0428 -1.54591,-0.21291 z m 4.74233,-9.01758 c 1.09257,-1.29844 2.07304,-3.12319 1.90852,-3.55193 -0.12037,-0.31367 -0.71251,-0.39361 -2.91584,-0.39361 -1.52063,0 -2.95312,0.0723 -3.1833,0.1606 -0.80925,0.31054 -0.4008,1.25677 1.54847,3.58732 1.01043,1.20807 1.74565,1.26306 2.64215,0.19762 z m -8.094303,-14.67379 1.103913,-0.4417 v -1.63514 -1.63513 l -1.859753,-1.3127 c -4.760564,-3.36021 -5.928994,-4.18709 -9.517333,-6.73524 -2.110053,-1.49839 -4.029472,-2.7764 -4.26538,-2.84003 -0.592389,-0.15978 -1.15525,2.85514 -0.931929,4.99178 0.28896,2.76461 2.071537,5.98853 4.26923,7.7212 1.037621,0.81806 3.357498,1.91452 4.862548,2.29821 1.36578,0.34819 5.035764,0.11008 6.338704,-0.41125 z m 21.262873,-0.33531 c 3.26978,-1.07871 5.7191,-3.17026 7.1731,-6.12533 0.80592,-1.63792 0.84607,-1.86683 0.84607,-4.82372 0,-2.40974 -0.0888,-3.19137 -0.39688,-3.49382 -0.41335,-0.4058 0.0954,-0.74005 -13.96758,9.17707 l -1.92903,1.36034 0.0769,1.72983 0.077,1.72982 1.32291,0.45144 c 1.78878,0.61041 4.93805,0.6078 6.7975,-0.006 z m 24.15875,23.72832 c -1.11191,-0.41011 -3.0112,-2.27751 -3.59701,-3.53663 -0.39126,-0.84094 -0.4936,-1.70045 -0.49822,-4.18429 -0.009,-4.78126 -0.17514,-5.06069 -4.67641,-7.85986 -1.97789,-1.22998 -3.66099,-2.40528 -3.74023,-2.61178 -0.0793,-0.2065 0.11519,-0.5854 0.43209,-0.842 0.31688,-0.2566 1.01232,-1.39892 1.5454,-2.53848 0.53307,-1.13956 0.99523,-2.10874 1.02701,-2.15373 0.0318,-0.045 0.75007,0.11945 1.59619,0.36542 2.2692,0.65968 6.11022,1.08474 7.69938,0.85206 0.75664,-0.11079 2.48305,-0.61915 3.83646,-1.12968 2.92482,-1.10331 4.52566,-1.19052 6.59267,-0.35916 4.44906,1.78945 6.50504,7.50368 4.14128,11.50995 -0.68486,1.16076 -1.55457,1.59418 -3.65979,1.82388 -0.93664,0.1022 -1.91134,0.2934 -2.166,0.42491 -0.64236,0.33169 -0.5864,1.48912 0.14868,3.07572 0.79985,1.72639 0.66003,2.80645 -0.57482,4.44028 -1.46281,1.93545 -2.92408,2.72652 -5.32967,2.88527 -1.14239,0.0754 -2.31979,0.007 -2.77701,-0.16188 z m -82.285422,-2.798 c -0.721454,-0.17182 -2.676407,-2.10326 -3.055693,-3.01894 -0.364794,-0.88069 0.04622,-3.78087 0.720652,-5.08509 0.376845,-0.72874 0.375142,-0.82589 -0.01954,-1.11448 -0.237802,-0.17389 -1.288349,-0.4005 -2.334547,-0.50359 -1.046199,-0.10309 -2.225651,-0.35471 -2.621005,-0.55916 -0.935029,-0.48352 -1.700307,-2.51195 -1.948756,-5.16532 -0.241598,-2.58022 0.168783,-3.43521 3.047282,-6.34874 2.402183,-2.43141 2.214113,-2.39508 5.682438,-1.09789 2.647447,0.99018 5.039238,0.91538 9.480338,-0.29646 l 3.394922,-0.92637 0.375391,0.89844 c 0.206465,0.49413 0.375835,1.11062 0.37638,1.36995 0.0011,0.56406 0.707962,1.71789 1.828507,2.98506 0.75946,0.85884 1.251505,1.79041 1.038934,1.96697 -0.506698,0.42084 -4.844931,3.61079 -5.600978,4.11845 -1.138579,0.76452 -1.185244,0.90899 -1.336302,4.13712 -0.141729,3.02871 -0.693034,4.34257 -2.709035,6.45614 -1.161632,1.21785 -1.815298,1.67322 -2.837688,1.97683 -1.306902,0.38811 -2.438547,0.45542 -3.481303,0.20708 z m 74.849452,-37.69272 c -0.30209,-0.4888 -0.5189,-8.18899 -0.23694,-8.41528 0.14552,-0.11679 2.52677,-1.34988 5.29166,-2.74021 7.47174,-3.75715 8.03306,-4.45228 8.05827,-9.97906 l 0.0115,-2.52615 1.99376,-2.00672 c 2.17237,-2.18649 2.67947,-2.40804 4.93318,-2.15526 1.83817,0.20617 2.57642,0.65856 3.65567,2.24012 0.81182,1.18965 0.90666,1.53777 1.09149,4.00621 0.11133,1.48685 0.2091,2.71763 0.21728,2.73508 0.008,0.0175 0.71069,0.16861 1.56114,0.33593 1.92525,0.37877 2.5776,1.03273 2.80046,2.80734 0.23837,1.89822 0.22512,2.42772 -0.11217,4.48251 -0.38771,2.36193 -0.60009,2.72552 -1.93806,3.31798 -0.60823,0.26933 -1.459,0.80347 -1.89061,1.18698 -2.01181,1.78762 -2.25706,1.85005 -5.93416,1.51054 -3.81274,-0.35203 -4.14745,-0.29458 -8.89152,1.52608 -1.60073,0.61432 -3.2676,1.23589 -3.70417,1.38126 -0.43656,0.14538 -1.03187,0.36402 -1.32291,0.48588 -2.85125,1.19385 -5.44418,2.03283 -5.58389,1.80677 z m -69.16091,-2.49733 c -2.255573,-0.79356 -5.113073,-1.78562 -6.35,-2.20459 -1.236928,-0.41896 -3.26099,-1.11871 -4.497917,-1.55499 -2.019905,-0.71245 -3.252957,-0.94913 -4.526828,-0.86893 -0.234182,0.0147 -0.948557,0.44237 -1.5875,0.95028 -1.330699,1.0578 -2.160061,1.15555 -3.94838,0.46537 -3.142161,-1.21268 -4.78943,-2.86296 -4.964454,-4.97352 -0.26456,-3.19026 1.155507,-5.80056 3.538417,-6.50414 1.024933,-0.30263 1.173214,-0.4316 1.020162,-0.88733 -0.411767,-1.22608 -0.400542,-2.84943 0.03322,-4.80425 0.806233,-3.63343 1.978431,-4.81263 5.027316,-5.05737 2.071619,-0.16629 3.190356,0.2086 4.768869,1.59807 1.312017,1.15488 2.755844,3.80665 2.755844,5.06145 0,1.12523 0.443086,1.88993 2.030567,3.50449 2.306431,2.34577 4.339581,3.72514 6.825561,4.63076 1.228574,0.44755 2.982997,1.25014 3.898717,1.78353 l 1.664947,0.9698 -0.08341,1.3141 c -0.04588,0.72276 -0.193805,2.02848 -0.328732,2.9016 -0.134924,0.87313 -0.246219,2.39118 -0.247319,3.37344 -0.0016,1.53157 -0.06794,1.78303 -0.465019,1.7655 -0.254661,-0.0112 -2.308489,-0.66971 -4.564061,-1.46327 z"
       id="path4496"
       inkscape:connector-curvature="0" />
  </g>
</svg>
