<?xml version="1.0" encoding="UTF-8" standalone="no"?>
<!-- Created with Inkscape (http://www.inkscape.org/) -->

<svg
   width="141.79973mm"
   height="15.554557mm"
   viewBox="0 0 141.79973 15.554557"
   version="1.1"
   id="svg8"
   inkscape:version="1.1.2 (0a00cf5339, 2022-02-04)"
   sodipodi:docname="lod_title.svg"
   xmlns:inkscape="http://www.inkscape.org/namespaces/inkscape"
   xmlns:sodipodi="http://sodipodi.sourceforge.net/DTD/sodipodi-0.dtd"
   xmlns="http://www.w3.org/2000/svg"
   xmlns:svg="http://www.w3.org/2000/svg"
   xmlns:rdf="http://www.w3.org/1999/02/22-rdf-syntax-ns#"
   xmlns:cc="http://creativecommons.org/ns#"
   xmlns:dc="http://purl.org/dc/elements/1.1/">
  <defs
     id="defs2" />
  <sodipodi:namedview
     id="base"
     pagecolor="#ffffff"
     bordercolor="#666666"
     borderopacity="1.0"
     inkscape:pageopacity="0.0"
     inkscape:pageshadow="2"
     inkscape:zoom="0.35"
     inkscape:cx="-35.714286"
     inkscape:cy="305.71429"
     inkscape:document-units="mm"
     inkscape:current-layer="g1044"
     showgrid="false"
     inkscape:window-width="1366"
     inkscape:window-height="694"
     inkscape:window-x="0"
     inkscape:window-y="0"
     inkscape:window-maximized="1"
     inkscape:pagecheckerboard="0"
     inkscape:lockguides="false"
     inkscape:showpageshadow="2"
     inkscape:deskcolor="#d1d1d1"
     fit-margin-top="0"
     fit-margin-left="0"
     fit-margin-right="0"
     fit-margin-bottom="0" />
  <metadata
     id="metadata5">
    <rdf:RDF>
      <cc:Work
         rdf:about="">
        <dc:format>image/svg+xml</dc:format>
        <dc:type
           rdf:resource="http://purl.org/dc/dcmitype/StillImage" />
      </cc:Work>
    </rdf:RDF>
  </metadata>
  <g
     inkscape:groupmode="layer"
     id="layer2"
     inkscape:label="Layer 2"
     transform="translate(-34.100138,-140.72272)">
    <flowRoot
       xml:space="preserve"
       id="flowRoot911"
       style="font-style:normal;font-variant:normal;font-weight:normal;font-stretch:normal;font-size:12px;line-height:1.25;font-family:sans-serif;-inkscape-font-specification:'sans-serif, Normal';font-variant-ligatures:normal;font-variant-caps:normal;font-variant-numeric:normal;font-feature-settings:normal;text-align:start;letter-spacing:0px;word-spacing:0px;writing-mode:lr-tb;text-anchor:start;fill:#000000;fill-opacity:1;stroke:none"><flowRegion
         id="flowRegion913"><rect
           id="rect915"
           width="602.0509"
           height="379.81735"
           x="103.03556"
           y="540.67181" /></flowRegion><flowPara
         id="flowPara917" /></flowRoot>
    <g
       id="g845">
      <g
         id="g1193"
         transform="translate(-5.127712,5.2369591)">
        <g
           id="g1044"
           transform="matrix(1.1469107,0,0,1.1469107,-24.538363,-103.69495)">
          <g
             id="g168925"
             transform="translate(23.89366,81.757682)">
            <text
               xml:space="preserve"
               style="font-size:9.22769px;line-height:0.5;font-family:'28 Days Later';-inkscape-font-specification:'28 Days Later';white-space:pre;inline-size:248.383;stroke-width:0.230692"
               x="-30.53215"
               y="125.74173"
               id="text13491"
               transform="translate(61.940541,12.081476)"><tspan
                 x="-30.53215"
                 y="125.74173"
                 id="tspan877"><tspan
                   style="font-size:14.7643px;font-family:'Bandwidth Bandless BRK';-inkscape-font-specification:'Bandwidth Bandless BRK, Normal'"
                   id="tspan875">L brary of Des gns
</tspan></tspan></text>
            <g
               id="use2377"
               transform="matrix(0.06558499,0,0,0.06558499,34.169638,120.56462)">
              <path
                 style="fill:#000000;stroke-width:0.0749015"
                 d="m 98.569125,207.12973 c -9.0302,-0.38305 -17.059967,-1.69532 -24.30453,-3.972 -2.891925,-0.90881 -5.342617,-1.88628 -7.978044,-3.18207 -2.493169,-1.22586 -4.414489,-2.40495 -6.329185,-3.88418 -1.007783,-0.77858 -3.125601,-2.88613 -3.760175,-3.74194 -1.511421,-2.03838 -2.343057,-4.06837 -2.52736,-6.16915 -0.09841,-1.12174 -0.09396,-17.06689 0.0047,-16.57586 0.03721,0.18538 0.121184,0.62308 0.186576,0.97266 0.34212,1.82875 1.355155,3.83229 2.840945,5.61868 4.038274,4.85528 11.963374,8.9604 22.184008,11.49108 9.560101,2.36714 20.681561,3.2399 31.55505,2.47632 12.18301,-0.85555 23.27017,-3.7611 30.93435,-8.10678 1.2003,-0.68059 3.25297,-2.05576 4.22223,-2.82864 1.04526,-0.83348 2.53011,-2.27904 3.22792,-3.14248 1.62293,-2.00814 2.51449,-3.89457 2.84593,-6.02166 0.0879,-0.56357 0.10166,0.43452 0.10797,7.78551 0.008,9.41654 0.0245,9.07616 -0.51682,10.71327 -0.46061,1.39299 -1.22399,2.76684 -2.30217,4.14326 -0.63436,0.80984 -2.50054,2.62023 -3.50405,3.39931 -7.88913,6.12473 -21.08603,10.03093 -37.00025,10.95183 -1.82432,0.10556 -8.03664,0.15133 -9.887018,0.0728 z m 0.936267,-22.67 c -11.980371,-0.37105 -22.998498,-2.59385 -31.496105,-6.35406 -2.961602,-1.31051 -5.758566,-2.9415 -7.978382,-4.65237 -1.066242,-0.82179 -3.17738,-2.91378 -3.833714,-3.79893 -1.513554,-2.04126 -2.340915,-4.06735 -2.529079,-6.19335 -0.09709,-1.09707 -0.09104,-17.03646 0.0066,-16.55167 0.03721,0.18539 0.120103,0.61766 0.18418,0.9606 0.163577,0.87541 0.423748,1.63713 0.895808,2.62266 2.900296,6.05509 11.462056,11.26565 23.59127,14.35731 7.989685,2.03652 16.537218,2.98321 25.8036,2.85789 3.40945,-0.0461 4.70168,-0.1055 7.6774,-0.35287 15.56537,-1.29394 28.8175,-5.89813 35.45655,-12.3187 2.54659,-2.46279 3.96275,-4.93731 4.3882,-7.6677 0.0878,-0.56357 0.10166,0.43452 0.10798,7.78551 0.008,9.41654 0.0245,9.07616 -0.51682,10.71327 -1.5987,4.83468 -6.76355,9.25049 -14.793,12.64761 -7.19789,3.0453 -16.38612,5.05052 -26.25329,5.72946 -3.26858,0.22491 -7.59419,0.31187 -10.71093,0.21534 z m -0.861366,-22.7283 c -17.587103,-0.6428 -33.215446,-5.52099 -40.510238,-12.64479 -1.120999,-1.09472 -1.768314,-1.85622 -2.467595,-2.90286 -0.944692,-1.41394 -1.539485,-2.80045 -1.864073,-4.34528 l -0.169955,-0.80891 -0.01353,-8.57623 c -0.0075,-4.8955 0.014,-8.44765 0.05055,-8.27663 0.03523,0.16478 0.118487,0.59705 0.185017,0.9606 0.321844,1.75861 1.337087,3.82926 2.687309,5.48094 0.56748,0.69417 1.957004,2.09635 2.704324,2.72894 6.89675,5.838 19.348485,9.98042 33.892951,11.2754 5.20545,0.46349 11.584094,0.53329 16.815414,0.18404 16.36625,-1.09264 30.4229,-5.78668 37.32908,-12.46559 2.53646,-2.45298 3.96487,-4.94524 4.38602,-7.65261 0.0908,-0.58367 0.10377,0.33081 0.11016,7.77043 0.007,7.41272 -0.008,8.51729 -0.11274,9.13799 -1.05843,6.22717 -8.00605,11.92617 -19.16715,15.72245 -9.66195,3.28637 -21.70717,4.85611 -33.855514,4.41211 z m 1.08607,-22.65663 c -6.753451,-0.2415 -12.325178,-0.87436 -17.82657,-2.02479 -14.916115,-3.11922 -25.279994,-9.31577 -27.755904,-16.59523 -0.685686,-2.01602 -0.6651,-4.52011 0.05393,-6.56202 1.12706,-3.20055 3.887025,-6.31515 7.928192,-8.9469 11.418743,-7.436314 31.784677,-10.998265 51.494596,-9.006288 18.56262,1.876005 33.09526,8.420698 37.0754,16.696668 1.20926,2.51443 1.42278,5.154 0.62149,7.68306 -1.67328,5.28122 -7.68156,10.13197 -16.83681,13.59309 -7.41203,2.80209 -16.28563,4.51838 -26.14064,5.05602 -1.48267,0.0809 -7.31303,0.1529 -8.613694,0.10639 z"
                 id="path169202"
                 transform="matrix(0.87190747,0,0,0.87190747,21.395182,90.412401)" />
              <ellipse
                 ry="43.600895"
                 rx="42.288643"
                 cy="144.16808"
                 cx="110.84117"
                 id="ellipse169204"
                 style="fill:#000004;fill-opacity:1;stroke:#000000;stroke-width:1.19966;stroke-miterlimit:4;stroke-dasharray:none;stroke-opacity:1" />
              <ellipse
                 style="fill:#000003;fill-opacity:1;stroke:#000000;stroke-width:3.72619;stroke-miterlimit:4;stroke-dasharray:none;stroke-opacity:1"
                 id="ellipse169206"
                 cx="111.6317"
                 cy="143.69124"
                 rx="46.897667"
                 ry="46.971886" />
              <path
                 style="fill:#080000;fill-opacity:1;stroke:#000000;stroke-width:1.26935;stroke-linecap:butt;stroke-linejoin:miter;stroke-miterlimit:4;stroke-dasharray:none;stroke-opacity:1"
                 d="m 73.138875,135.49948 -12.213126,5.57713 -5.614028,3.42072 c 0,0 -4.125923,1.96809 -3.801077,9.23452 0.324845,7.26642 1.984087,13.07908 8.433856,23.07362 2.776622,4.30261 5.673134,7.46228 10.676709,8.74304 5.011047,1.28268 5.835799,1.58034 10.383465,-0.18027 3.362417,-1.30182 13.12536,-5.79018 13.12536,-5.79018 L 158.6492,145.29302 c 0,0 7.98874,-4.11103 8.9551,-6.89292 2.07803,-5.98203 1.43639,-12.55714 -1.71006,-20.1305 -3.14641,-7.57333 -10.51274,-12.75477 -13.18187,-14.98464 -3.27408,-2.73528 -8.35772,-2.3449 -8.35772,-2.3449 l -16.80828,9.08411 z"
                 id="path169208"
                 sodipodi:nodetypes="cccssssccsssccc" />
              <path
                 d="m 150.05567,104.43895 a 13.35885,13.35885 0 0 0 -4.92085,-1.39565 2.2779429,2.2779429 0 0 0 -1.28335,0.30079 l -6.91403,3.32868 a 44.415874,44.415874 0 0 0 -69.332885,33.36706 l -7.218834,3.45701 v 0 l -0.95048,0.47324 -0.02407,0.028 a 12.031388,12.031388 0 0 0 -5.205582,10.92049 32.280214,32.280214 0 0 0 4.600002,16.00173 c 4.860681,8.42198 12.432434,14.19706 18.849175,14.19706 v 0 a 9.3243257,9.3243257 0 0 0 4.696252,-1.3315 v -0.0601 l 5.863293,-2.85143 a 44.395821,44.395821 0 0 0 68.057559,-35.43651 l 5.26973,-2.99182 0.0802,-0.0562 a 11.69852,11.69852 0 0 0 3.50916,-4.25911 l 0.0922,-0.25666 a 17.473587,17.473587 0 0 0 1.27534,-6.96617 35.949788,35.949788 0 0 0 -5.28579,-16.23435 31.36984,31.36984 0 0 0 -11.15711,-10.2347 m -22.89172,15.72101 c 3.91022,-2.04534 6.06783,-4.70428 6.07986,-7.49155 v 0 c 0,2.80732 -2.16166,5.42214 -6.08388,7.47148 m -42.270346,58.38838 c -0.07217,0.17651 -0.07217,0.17651 -0.112256,0.26067 a 8.0209256,8.0209256 0 0 1 -3.17628,3.58536 h -0.03209 a 7.7602455,7.7602455 0 0 1 -3.922232,0.99861 c -5.891371,0 -12.941765,-5.35801 -17.545775,-13.3348 a 30.419359,30.419359 0 0 1 -4.41151,-15.11943 10.671841,10.671841 0 0 1 4.41151,-9.62512 l 0.938448,-0.45317 0.168441,-0.0601 a 1.3194422,1.3194422 0 0 1 0.176458,-0.0642 1.3836096,1.3836096 0 0 1 0.168441,-0.0562 l 0.188491,-0.0601 0.160423,-0.0441 0.200523,-0.0522 0.160421,-0.0321 0.212555,-0.0441 0.160422,-0.028 0.216565,-0.0321 h 0.176459 l 0.220576,-0.0241 h 1.784655 l 0.25266,0.0241 h 0.148385 l 0.272712,0.04 h 0.128331 l 0.304794,0.0522 0.144366,0.0321 0.284746,0.0642 0.140366,0.032 0.296777,0.0763 c 0.300783,0.0682 2.061377,0.72589 2.061377,0.72589 a 29.007677,29.007677 0 0 1 12.568793,12.1918 c 0.509332,0.8783 0.974537,1.76863 1.395638,2.66294 0.316825,0.66976 0.609589,1.3355 0.87829,2.00525 0.180482,0.44917 0.348916,0.89434 0.505324,1.34351 0.292763,0.83419 0.545419,1.66835 0.757968,2.49449 0.08017,0.30482 0.156408,0.6096 0.224586,0.91439 a 1.0988668,1.0988668 0 0 0 0.05219,0.22059 20.100439,20.100439 0 0 1 -0.0241,9.78552 c 0,0 -0.461208,1.29138 -0.537402,1.47184 m 9.123795,-2.13356 -5.702876,2.74716 -1.552047,0.74594 -1.203131,0.5735 c 0.03609,-0.0601 0.07217,-0.12037 0.104264,-0.18046 l 0.07217,-0.1243 c 0.12037,-0.21257 0.236623,-0.43716 0.348916,-0.66575 h 0.03209 l 0.03209,-0.0642 c 0.112257,-0.24463 0.220578,-0.48929 0.320834,-0.74594 0.06418,-0.16037 0.12037,-0.32886 0.180482,-0.49731 l 0.03609,-0.12037 a 27.479692,27.479692 0 0 0 -3.757871,-21.1351 29.958156,29.958156 0 0 0 -13.880213,-13.07811 l -0.585527,-0.21657 -0.557455,-0.18046 -0.352921,-0.10026 -0.248648,-0.0682 -0.200523,-0.0522 -0.401046,-0.0922 -0.232608,-0.0481 -0.401045,-0.0723 -0.401047,-0.0601 -0.260681,-0.0361 h -0.140366 l 2.338099,-1.12292 1.519968,-0.73393 3.934262,-1.88891 a 8.1171766,8.1171766 0 0 1 2.991806,-0.54543 c 5.895379,0 12.957807,5.366 17.565824,13.35083 a 30.720143,30.720143 0 0 1 4.41153,14.75849 11.229295,11.229295 0 0 1 -3.946313,9.71737 m 9.697298,-53.71617 a 27.932873,27.932873 0 0 1 -7.162665,-2.47846 7.4875339,7.4875339 0 0 1 -0.69782,-0.40104 16.675504,16.675504 0 0 1 -1.87692,-1.23923 7.6639943,7.6639943 0 0 1 -3.50915,-5.89138 c 0,-2.80732 2.161635,-5.46224 6.08389,-7.51157 a 33.832263,33.832263 0 0 1 15.307915,-3.30063 33.832263,33.832263 0 0 1 15.30796,3.30063 15.584657,15.584657 0 0 1 3.838,2.73111 9.3564095,9.3564095 0 0 1 0.98656,1.15901 l 0.74195,1.2994 v 0.04 c 0.0802,0.17651 0.14836,0.35291 0.20854,0.52937 v 0 c 0.0562,0.17239 0.10427,0.34892 0.1444,0.52538 v 0.0723 a 1.2432433,1.2432433 0 0 0 0.0361,0.20051 c 0,0.0682 0.0321,0.18046 0.0441,0.27271 a 1.6442897,1.6442897 0 0 0 -0.04,-0.27671 2.1897126,2.1897126 0 0 0 0.04,0.27671 v 0.10426 a 4.9689634,4.9689634 0 0 1 0.028,0.54543 c 0,2.80733 -2.16966,5.43015 -6.08789,7.47549 a 33.880388,33.880388 0 0 1 -15.31193,3.24046 v 0 l -0.0763,0.0562 h -1.62825 a 6.4809079,6.4809079 0 0 1 -0.83817,-0.0361 h -0.44917 c -0.40105,-0.0242 -0.77002,-0.0562 -1.15101,-0.0961 h -0.0842 c -0.4211,-0.0441 -0.83819,-0.0962 -1.25529,-0.15247 z m 19.7676,38.17561 a 32.837669,32.837669 0 0 1 3.5693,-8.87515 c 4.4115,-7.66399 11.19721,-12.83349 16.84395,-12.83349 a 7.3912826,7.3912826 0 0 1 3.76983,0.96653 8.053009,8.053009 0 0 1 3.4931,4.47969 12.408372,12.408372 0 0 1 0.40106,1.46781 l 0.25264,1.54804 a 17.216916,17.216916 0 0 1 0.11225,1.7606 29.228253,29.228253 0 0 1 -4.22302,14.52992 c -4.41152,7.668 -11.20122,12.83347 -16.84396,12.83347 a 7.4273766,7.4273766 0 0 1 -3.76981,-0.96251 7.6880569,7.6880569 0 0 1 -3.08806,-3.47707 11.341589,11.341589 0 0 1 -0.76599,-2.23786 16.198259,16.198259 0 0 1 -0.40103,-3.54122 22.121711,22.121711 0 0 1 0.28873,-3.78186 z m 40.34123,-23.48528 -0.0921,0.25669 a 10.186576,10.186576 0 0 1 -2.96774,3.54523 l -4.43958,2.51859 -0.0883,0.0522 v -0.41708 a 44.472021,44.472021 0 0 0 -17.9348,-35.64903 h 0.0361 l 6.34859,-3.05598 v 0 a 1.5199654,1.5199654 0 0 1 0.44515,-0.0522 11.542112,11.542112 0 0 1 4.31526,1.27135 29.649351,29.649351 0 0 1 10.56356,9.74942 35.292072,35.292072 0 0 1 4.93688,15.30393 16.017788,16.017788 0 0 1 -1.20313,6.48091"
                 style="fill:#ffffff;stroke:none;stroke-width:1.19966;stroke-miterlimit:4;stroke-dasharray:none;stroke-opacity:1"
                 id="path169210" />
            </g>
            <g
               id="use168919"
               transform="matrix(0.06558499,0,0,0.06558499,124.4937,120.56462)">
              <path
                 style="fill:#000000;stroke-width:0.0749015"
                 d="m 98.569125,207.12973 c -9.0302,-0.38305 -17.059967,-1.69532 -24.30453,-3.972 -2.891925,-0.90881 -5.342617,-1.88628 -7.978044,-3.18207 -2.493169,-1.22586 -4.414489,-2.40495 -6.329185,-3.88418 -1.007783,-0.77858 -3.125601,-2.88613 -3.760175,-3.74194 -1.511421,-2.03838 -2.343057,-4.06837 -2.52736,-6.16915 -0.09841,-1.12174 -0.09396,-17.06689 0.0047,-16.57586 0.03721,0.18538 0.121184,0.62308 0.186576,0.97266 0.34212,1.82875 1.355155,3.83229 2.840945,5.61868 4.038274,4.85528 11.963374,8.9604 22.184008,11.49108 9.560101,2.36714 20.681561,3.2399 31.55505,2.47632 12.18301,-0.85555 23.27017,-3.7611 30.93435,-8.10678 1.2003,-0.68059 3.25297,-2.05576 4.22223,-2.82864 1.04526,-0.83348 2.53011,-2.27904 3.22792,-3.14248 1.62293,-2.00814 2.51449,-3.89457 2.84593,-6.02166 0.0879,-0.56357 0.10166,0.43452 0.10797,7.78551 0.008,9.41654 0.0245,9.07616 -0.51682,10.71327 -0.46061,1.39299 -1.22399,2.76684 -2.30217,4.14326 -0.63436,0.80984 -2.50054,2.62023 -3.50405,3.39931 -7.88913,6.12473 -21.08603,10.03093 -37.00025,10.95183 -1.82432,0.10556 -8.03664,0.15133 -9.887018,0.0728 z m 0.936267,-22.67 c -11.980371,-0.37105 -22.998498,-2.59385 -31.496105,-6.35406 -2.961602,-1.31051 -5.758566,-2.9415 -7.978382,-4.65237 -1.066242,-0.82179 -3.17738,-2.91378 -3.833714,-3.79893 -1.513554,-2.04126 -2.340915,-4.06735 -2.529079,-6.19335 -0.09709,-1.09707 -0.09104,-17.03646 0.0066,-16.55167 0.03721,0.18539 0.120103,0.61766 0.18418,0.9606 0.163577,0.87541 0.423748,1.63713 0.895808,2.62266 2.900296,6.05509 11.462056,11.26565 23.59127,14.35731 7.989685,2.03652 16.537218,2.98321 25.8036,2.85789 3.40945,-0.0461 4.70168,-0.1055 7.6774,-0.35287 15.56537,-1.29394 28.8175,-5.89813 35.45655,-12.3187 2.54659,-2.46279 3.96275,-4.93731 4.3882,-7.6677 0.0878,-0.56357 0.10166,0.43452 0.10798,7.78551 0.008,9.41654 0.0245,9.07616 -0.51682,10.71327 -1.5987,4.83468 -6.76355,9.25049 -14.793,12.64761 -7.19789,3.0453 -16.38612,5.05052 -26.25329,5.72946 -3.26858,0.22491 -7.59419,0.31187 -10.71093,0.21534 z m -0.861366,-22.7283 c -17.587103,-0.6428 -33.215446,-5.52099 -40.510238,-12.64479 -1.120999,-1.09472 -1.768314,-1.85622 -2.467595,-2.90286 -0.944692,-1.41394 -1.539485,-2.80045 -1.864073,-4.34528 l -0.169955,-0.80891 -0.01353,-8.57623 c -0.0075,-4.8955 0.014,-8.44765 0.05055,-8.27663 0.03523,0.16478 0.118487,0.59705 0.185017,0.9606 0.321844,1.75861 1.337087,3.82926 2.687309,5.48094 0.56748,0.69417 1.957004,2.09635 2.704324,2.72894 6.89675,5.838 19.348485,9.98042 33.892951,11.2754 5.20545,0.46349 11.584094,0.53329 16.815414,0.18404 16.36625,-1.09264 30.4229,-5.78668 37.32908,-12.46559 2.53646,-2.45298 3.96487,-4.94524 4.38602,-7.65261 0.0908,-0.58367 0.10377,0.33081 0.11016,7.77043 0.007,7.41272 -0.008,8.51729 -0.11274,9.13799 -1.05843,6.22717 -8.00605,11.92617 -19.16715,15.72245 -9.66195,3.28637 -21.70717,4.85611 -33.855514,4.41211 z m 1.08607,-22.65663 c -6.753451,-0.2415 -12.325178,-0.87436 -17.82657,-2.02479 -14.916115,-3.11922 -25.279994,-9.31577 -27.755904,-16.59523 -0.685686,-2.01602 -0.6651,-4.52011 0.05393,-6.56202 1.12706,-3.20055 3.887025,-6.31515 7.928192,-8.9469 11.418743,-7.436314 31.784677,-10.998265 51.494596,-9.006288 18.56262,1.876005 33.09526,8.420698 37.0754,16.696668 1.20926,2.51443 1.42278,5.154 0.62149,7.68306 -1.67328,5.28122 -7.68156,10.13197 -16.83681,13.59309 -7.41203,2.80209 -16.28563,4.51838 -26.14064,5.05602 -1.48267,0.0809 -7.31303,0.1529 -8.613694,0.10639 z"
                 id="path169214"
                 transform="matrix(0.87190747,0,0,0.87190747,21.395182,90.412401)" />
              <ellipse
                 ry="43.600895"
                 rx="42.288643"
                 cy="144.16808"
                 cx="110.84117"
                 id="ellipse169216"
                 style="fill:#000004;fill-opacity:1;stroke:#000000;stroke-width:1.19966;stroke-miterlimit:4;stroke-dasharray:none;stroke-opacity:1" />
              <ellipse
                 style="fill:#000003;fill-opacity:1;stroke:#000000;stroke-width:3.72619;stroke-miterlimit:4;stroke-dasharray:none;stroke-opacity:1"
                 id="ellipse169218"
                 cx="111.6317"
                 cy="143.69124"
                 rx="46.897667"
                 ry="46.971886" />
              <path
                 style="fill:#080000;fill-opacity:1;stroke:#000000;stroke-width:1.26935;stroke-linecap:butt;stroke-linejoin:miter;stroke-miterlimit:4;stroke-dasharray:none;stroke-opacity:1"
                 d="m 73.138875,135.49948 -12.213126,5.57713 -5.614028,3.42072 c 0,0 -4.125923,1.96809 -3.801077,9.23452 0.324845,7.26642 1.984087,13.07908 8.433856,23.07362 2.776622,4.30261 5.673134,7.46228 10.676709,8.74304 5.011047,1.28268 5.835799,1.58034 10.383465,-0.18027 3.362417,-1.30182 13.12536,-5.79018 13.12536,-5.79018 L 158.6492,145.29302 c 0,0 7.98874,-4.11103 8.9551,-6.89292 2.07803,-5.98203 1.43639,-12.55714 -1.71006,-20.1305 -3.14641,-7.57333 -10.51274,-12.75477 -13.18187,-14.98464 -3.27408,-2.73528 -8.35772,-2.3449 -8.35772,-2.3449 l -16.80828,9.08411 z"
                 id="path169220"
                 sodipodi:nodetypes="cccssssccsssccc" />
              <path
                 d="m 150.05567,104.43895 a 13.35885,13.35885 0 0 0 -4.92085,-1.39565 2.2779429,2.2779429 0 0 0 -1.28335,0.30079 l -6.91403,3.32868 a 44.415874,44.415874 0 0 0 -69.332885,33.36706 l -7.218834,3.45701 v 0 l -0.95048,0.47324 -0.02407,0.028 a 12.031388,12.031388 0 0 0 -5.205582,10.92049 32.280214,32.280214 0 0 0 4.600002,16.00173 c 4.860681,8.42198 12.432434,14.19706 18.849175,14.19706 v 0 a 9.3243257,9.3243257 0 0 0 4.696252,-1.3315 v -0.0601 l 5.863293,-2.85143 a 44.395821,44.395821 0 0 0 68.057559,-35.43651 l 5.26973,-2.99182 0.0802,-0.0562 a 11.69852,11.69852 0 0 0 3.50916,-4.25911 l 0.0922,-0.25666 a 17.473587,17.473587 0 0 0 1.27534,-6.96617 35.949788,35.949788 0 0 0 -5.28579,-16.23435 31.36984,31.36984 0 0 0 -11.15711,-10.2347 m -22.89172,15.72101 c 3.91022,-2.04534 6.06783,-4.70428 6.07986,-7.49155 v 0 c 0,2.80732 -2.16166,5.42214 -6.08388,7.47148 m -42.270346,58.38838 c -0.07217,0.17651 -0.07217,0.17651 -0.112256,0.26067 a 8.0209256,8.0209256 0 0 1 -3.17628,3.58536 h -0.03209 a 7.7602455,7.7602455 0 0 1 -3.922232,0.99861 c -5.891371,0 -12.941765,-5.35801 -17.545775,-13.3348 a 30.419359,30.419359 0 0 1 -4.41151,-15.11943 10.671841,10.671841 0 0 1 4.41151,-9.62512 l 0.938448,-0.45317 0.168441,-0.0601 a 1.3194422,1.3194422 0 0 1 0.176458,-0.0642 1.3836096,1.3836096 0 0 1 0.168441,-0.0562 l 0.188491,-0.0601 0.160423,-0.0441 0.200523,-0.0522 0.160421,-0.0321 0.212555,-0.0441 0.160422,-0.028 0.216565,-0.0321 h 0.176459 l 0.220576,-0.0241 h 1.784655 l 0.25266,0.0241 h 0.148385 l 0.272712,0.04 h 0.128331 l 0.304794,0.0522 0.144366,0.0321 0.284746,0.0642 0.140366,0.032 0.296777,0.0763 c 0.300783,0.0682 2.061377,0.72589 2.061377,0.72589 a 29.007677,29.007677 0 0 1 12.568793,12.1918 c 0.509332,0.8783 0.974537,1.76863 1.395638,2.66294 0.316825,0.66976 0.609589,1.3355 0.87829,2.00525 0.180482,0.44917 0.348916,0.89434 0.505324,1.34351 0.292763,0.83419 0.545419,1.66835 0.757968,2.49449 0.08017,0.30482 0.156408,0.6096 0.224586,0.91439 a 1.0988668,1.0988668 0 0 0 0.05219,0.22059 20.100439,20.100439 0 0 1 -0.0241,9.78552 c 0,0 -0.461208,1.29138 -0.537402,1.47184 m 9.123795,-2.13356 -5.702876,2.74716 -1.552047,0.74594 -1.203131,0.5735 c 0.03609,-0.0601 0.07217,-0.12037 0.104264,-0.18046 l 0.07217,-0.1243 c 0.12037,-0.21257 0.236623,-0.43716 0.348916,-0.66575 h 0.03209 l 0.03209,-0.0642 c 0.112257,-0.24463 0.220578,-0.48929 0.320834,-0.74594 0.06418,-0.16037 0.12037,-0.32886 0.180482,-0.49731 l 0.03609,-0.12037 a 27.479692,27.479692 0 0 0 -3.757871,-21.1351 29.958156,29.958156 0 0 0 -13.880213,-13.07811 l -0.585527,-0.21657 -0.557455,-0.18046 -0.352921,-0.10026 -0.248648,-0.0682 -0.200523,-0.0522 -0.401046,-0.0922 -0.232608,-0.0481 -0.401045,-0.0723 -0.401047,-0.0601 -0.260681,-0.0361 h -0.140366 l 2.338099,-1.12292 1.519968,-0.73393 3.934262,-1.88891 a 8.1171766,8.1171766 0 0 1 2.991806,-0.54543 c 5.895379,0 12.957807,5.366 17.565824,13.35083 a 30.720143,30.720143 0 0 1 4.41153,14.75849 11.229295,11.229295 0 0 1 -3.946313,9.71737 m 9.697298,-53.71617 a 27.932873,27.932873 0 0 1 -7.162665,-2.47846 7.4875339,7.4875339 0 0 1 -0.69782,-0.40104 16.675504,16.675504 0 0 1 -1.87692,-1.23923 7.6639943,7.6639943 0 0 1 -3.50915,-5.89138 c 0,-2.80732 2.161635,-5.46224 6.08389,-7.51157 a 33.832263,33.832263 0 0 1 15.307915,-3.30063 33.832263,33.832263 0 0 1 15.30796,3.30063 15.584657,15.584657 0 0 1 3.838,2.73111 9.3564095,9.3564095 0 0 1 0.98656,1.15901 l 0.74195,1.2994 v 0.04 c 0.0802,0.17651 0.14836,0.35291 0.20854,0.52937 v 0 c 0.0562,0.17239 0.10427,0.34892 0.1444,0.52538 v 0.0723 a 1.2432433,1.2432433 0 0 0 0.0361,0.20051 c 0,0.0682 0.0321,0.18046 0.0441,0.27271 a 1.6442897,1.6442897 0 0 0 -0.04,-0.27671 2.1897126,2.1897126 0 0 0 0.04,0.27671 v 0.10426 a 4.9689634,4.9689634 0 0 1 0.028,0.54543 c 0,2.80733 -2.16966,5.43015 -6.08789,7.47549 a 33.880388,33.880388 0 0 1 -15.31193,3.24046 v 0 l -0.0763,0.0562 h -1.62825 a 6.4809079,6.4809079 0 0 1 -0.83817,-0.0361 h -0.44917 c -0.40105,-0.0242 -0.77002,-0.0562 -1.15101,-0.0961 h -0.0842 c -0.4211,-0.0441 -0.83819,-0.0962 -1.25529,-0.15247 z m 19.7676,38.17561 a 32.837669,32.837669 0 0 1 3.5693,-8.87515 c 4.4115,-7.66399 11.19721,-12.83349 16.84395,-12.83349 a 7.3912826,7.3912826 0 0 1 3.76983,0.96653 8.053009,8.053009 0 0 1 3.4931,4.47969 12.408372,12.408372 0 0 1 0.40106,1.46781 l 0.25264,1.54804 a 17.216916,17.216916 0 0 1 0.11225,1.7606 29.228253,29.228253 0 0 1 -4.22302,14.52992 c -4.41152,7.668 -11.20122,12.83347 -16.84396,12.83347 a 7.4273766,7.4273766 0 0 1 -3.76981,-0.96251 7.6880569,7.6880569 0 0 1 -3.08806,-3.47707 11.341589,11.341589 0 0 1 -0.76599,-2.23786 16.198259,16.198259 0 0 1 -0.40103,-3.54122 22.121711,22.121711 0 0 1 0.28873,-3.78186 z m 40.34123,-23.48528 -0.0921,0.25669 a 10.186576,10.186576 0 0 1 -2.96774,3.54523 l -4.43958,2.51859 -0.0883,0.0522 v -0.41708 a 44.472021,44.472021 0 0 0 -17.9348,-35.64903 h 0.0361 l 6.34859,-3.05598 v 0 a 1.5199654,1.5199654 0 0 1 0.44515,-0.0522 11.542112,11.542112 0 0 1 4.31526,1.27135 29.649351,29.649351 0 0 1 10.56356,9.74942 35.292072,35.292072 0 0 1 4.93688,15.30393 16.017788,16.017788 0 0 1 -1.20313,6.48091"
                 style="fill:#ffffff;stroke:none;stroke-width:1.19966;stroke-miterlimit:4;stroke-dasharray:none;stroke-opacity:1"
                 id="path169222" />
            </g>
          </g>
        </g>
      </g>
    </g>
  </g>
  <g
     inkscape:label="Layer 1"
     inkscape:groupmode="layer"
     id="layer1"
     transform="translate(-34.100138,-140.72272)" />
</svg>
