<?xml version="1.0" encoding="UTF-8" standalone="no"?>
<!-- Created with Inkscape (http://www.inkscape.org/) -->

<svg
   width="126.72021mm"
   height="126.72021mm"
   viewBox="0 0 126.72021 126.72021"
   version="1.1"
   id="svg169088"
   inkscape:version="1.1.2 (0a00cf5339, 2022-02-04)"
   sodipodi:docname="lod_icon.svg"
   xmlns:inkscape="http://www.inkscape.org/namespaces/inkscape"
   xmlns:sodipodi="http://sodipodi.sourceforge.net/DTD/sodipodi-0.dtd"
   xmlns="http://www.w3.org/2000/svg"
   xmlns:svg="http://www.w3.org/2000/svg">
  <sodipodi:namedview
     id="namedview169090"
     pagecolor="#505050"
     bordercolor="#eeeeee"
     borderopacity="1"
     inkscape:pageshadow="0"
     inkscape:pageopacity="0"
     inkscape:pagecheckerboard="0"
     inkscape:document-units="mm"
     showgrid="false"
     inkscape:zoom="0.48640572"
     inkscape:cx="-3.0838453"
     inkscape:cy="236.42814"
     inkscape:window-width="1366"
     inkscape:window-height="694"
     inkscape:window-x="0"
     inkscape:window-y="0"
     inkscape:window-maximized="1"
     inkscape:current-layer="layer1"
     fit-margin-top="0"
     fit-margin-left="0"
     fit-margin-right="0"
     fit-margin-bottom="0" />
  <defs
     id="defs169085" />
  <g
     inkscape:label="Layer 1"
     inkscape:groupmode="layer"
     id="layer1"
     transform="translate(-41.639898,-85.139902)">
    <g
       id="g2375"
       transform="matrix(2.3404336,0,0,2.3404336,-169.80519,-355.45271)">
      <circle
         style="fill:#ffffff;fill-opacity:1;stroke:#000000;stroke-width:1.74382;stroke-opacity:1"
         id="path5"
         cx="117.41636"
         cy="215.32451"
         r="26.200041" />
      <g
         id="g2366"
         transform="translate(24.359318,-51.828058)">
        <path
           style="fill:#000000;stroke-width:0.015899"
           d="m 93.741212,288.59066 c 1.916795,-0.0813 3.621234,-0.35986 5.159002,-0.84312 0.613854,-0.19291 1.134046,-0.40039 1.693456,-0.67544 0.52922,-0.26021 0.93704,-0.51049 1.34347,-0.82448 0.21391,-0.16526 0.66345,-0.61262 0.79815,-0.79428 0.32082,-0.43268 0.49735,-0.86357 0.53647,-1.30949 0.0209,-0.23811 0.0199,-3.62271 -0.001,-3.51848 -0.008,0.0394 -0.0257,0.13226 -0.0396,0.20646 -0.0726,0.38818 -0.28765,0.81346 -0.60303,1.19265 -0.85719,1.03061 -2.53941,1.90198 -4.708892,2.43916 -2.029275,0.50246 -4.389972,0.68771 -6.698034,0.52563 -2.586027,-0.1816 -4.939443,-0.79835 -6.56628,-1.72078 -0.254782,-0.14447 -0.690492,-0.43637 -0.896232,-0.60043 -0.221872,-0.17691 -0.537054,-0.48376 -0.685175,-0.66703 -0.344491,-0.42626 -0.533738,-0.82668 -0.604091,-1.27819 -0.01866,-0.11963 -0.02158,0.0922 -0.02292,1.65259 -0.0017,1.9988 -0.0052,1.92655 0.109703,2.27405 0.09777,0.29569 0.25981,0.58731 0.48867,0.87947 0.134652,0.1719 0.530777,0.55619 0.743787,0.72156 1.674586,1.30006 4.475827,2.12921 7.853859,2.32469 0.38724,0.0224 1.705898,0.0321 2.098668,0.0154 z m -0.198737,-4.81205 c 2.543014,-0.0788 4.881777,-0.55058 6.685525,-1.34874 0.62864,-0.27818 1.22234,-0.62438 1.69353,-0.98754 0.22632,-0.17444 0.67444,-0.61849 0.81376,-0.80638 0.32128,-0.43329 0.4969,-0.86336 0.53684,-1.31463 0.0206,-0.23287 0.0193,-3.61625 -0.001,-3.51334 -0.008,0.0394 -0.0255,0.13111 -0.0391,0.2039 -0.0347,0.18582 -0.09,0.3475 -0.19015,0.5567 -0.61563,1.28528 -2.43299,2.3913 -5.0076,3.04755 -1.69593,0.43229 -3.510273,0.63323 -5.477202,0.60663 -0.723707,-0.01 -0.998002,-0.0224 -1.629643,-0.0749 -3.303984,-0.27466 -6.116948,-1.25197 -7.526186,-2.61483 -0.540552,-0.52276 -0.841153,-1.04802 -0.931461,-1.62758 -0.01864,-0.11963 -0.02158,0.0922 -0.02292,1.65259 -0.0017,1.9988 -0.0052,1.92655 0.109703,2.27405 0.339348,1.02624 1.435665,1.96356 3.140037,2.68465 1.52786,0.64641 3.4782,1.07205 5.572655,1.21616 0.693805,0.0477 1.611981,0.0662 2.273556,0.0457 z m 0.182838,-4.82442 c 3.733127,-0.13645 7.050477,-1.17192 8.598907,-2.68405 0.23795,-0.23237 0.37535,-0.39401 0.52378,-0.61618 0.20053,-0.30013 0.32678,-0.59443 0.39568,-0.92235 l 0.0361,-0.1717 0.003,-1.82043 c 0.002,-1.03915 -0.003,-1.79314 -0.0107,-1.75684 -0.007,0.035 -0.0251,0.12673 -0.0393,0.2039 -0.0683,0.37329 -0.28382,0.81282 -0.57043,1.16341 -0.12045,0.14735 -0.4154,0.44498 -0.57403,0.57926 -1.46394,1.2392 -4.107006,2.11849 -7.194287,2.39337 -1.104935,0.0984 -2.458898,0.1132 -3.569325,0.0391 -3.473982,-0.23193 -6.457717,-1.22831 -7.923658,-2.64601 -0.538402,-0.52068 -0.841603,-1.0497 -0.930999,-1.62438 -0.01927,-0.1239 -0.02203,0.0702 -0.02338,1.64939 -0.0015,1.57346 0.0017,1.80792 0.02393,1.93967 0.224668,1.32181 1.699405,2.53151 4.068516,3.33733 2.050894,0.69758 4.607673,1.03078 7.186341,0.93654 z m -0.230535,-4.80921 c 1.433522,-0.0513 2.616204,-0.1856 3.783958,-0.4298 3.166174,-0.6621 5.366054,-1.97741 5.891604,-3.52258 0.14555,-0.42793 0.14118,-0.95946 -0.0114,-1.39289 -0.23924,-0.67936 -0.82508,-1.34049 -1.68288,-1.89911 -2.423802,-1.57847 -6.746777,-2.33455 -10.930504,-1.91172 -3.940195,0.39821 -7.024966,1.78742 -7.869811,3.54411 -0.256683,0.53373 -0.302006,1.09402 -0.13192,1.63085 0.355178,1.12102 1.630526,2.15066 3.573866,2.88534 1.573314,0.59478 3.456869,0.95909 5.548743,1.07321 0.314719,0.0172 1.552301,0.0325 1.828386,0.0226 z"
           id="path1" />
        <ellipse
           ry="10.614595"
           rx="10.295129"
           cy="257.71103"
           cx="-92.888451"
           id="ellipse1"
           style="fill:#000004;fill-opacity:1;stroke:#000000;stroke-width:0.292056;stroke-miterlimit:4;stroke-dasharray:none;stroke-opacity:1"
           transform="scale(-1,1)" />
        <ellipse
           style="fill:#000003;fill-opacity:1;stroke:#000000;stroke-width:0.907137;stroke-miterlimit:4;stroke-dasharray:none;stroke-opacity:1"
           id="ellipse2"
           cx="-92.695999"
           cy="257.59494"
           rx="11.417192"
           ry="11.43526"
           transform="scale(-1,1)" />
        <path
           style="fill:#080000;fill-opacity:1;stroke:#000000;stroke-width:0.309022;stroke-linecap:butt;stroke-linejoin:miter;stroke-miterlimit:4;stroke-dasharray:none;stroke-opacity:1"
           d="m 102.06704,255.60067 2.97328,1.35774 1.36673,0.83277 c 0,0 1.00445,0.47913 0.92536,2.24814 -0.0791,1.769 -0.48302,3.18409 -2.05321,5.61725 -0.67597,1.04747 -1.38112,1.81668 -2.59923,2.12848 -1.21994,0.31227 -1.42072,0.38474 -2.52785,-0.0439 -0.818576,-0.31693 -3.195355,-1.40962 -3.195355,-1.40962 l -15.707129,-8.34666 c 0,0 -1.944851,-1.00082 -2.18011,-1.67807 -0.505895,-1.45632 -0.349688,-3.05702 0.416312,-4.90075 0.765991,-1.84372 2.559317,-3.10514 3.209114,-3.648 0.797071,-0.6659 2.034678,-0.57086 2.034678,-0.57086 l 4.09196,2.21152 z"
           id="path2"
           sodipodi:nodetypes="cccssssccsssccc" />
        <path
           d="m 83.341723,248.03901 a 3.2521991,3.2521991 0 0 1 1.197976,-0.33977 0.55456299,0.55456299 0 0 1 0.31243,0.0732 l 1.683214,0.81036 a 10.813001,10.813001 0 0 1 16.879027,8.12318 l 1.75741,0.84161 v 0 l 0.2314,0.11521 0.006,0.007 a 2.9290297,2.9290297 0 0 1 1.26729,2.65859 7.8585868,7.8585868 0 0 1 -1.11986,3.8956 c -1.18333,2.05032 -3.02667,3.45626 -4.58882,3.45626 v 0 a 2.269998,2.269998 0 0 1 -1.143295,-0.32415 v -0.0146 l -1.427413,-0.69418 a 10.80812,10.80812 0 0 1 -16.568547,-8.62698 l -1.282911,-0.72836 -0.01952,-0.0137 a 2.8479933,2.8479933 0 0 1 -0.854302,-1.03688 l -0.02245,-0.0625 a 4.2539278,4.2539278 0 0 1 -0.31048,-1.69591 8.751941,8.751941 0 0 1 1.28682,-3.95224 7.6369571,7.6369571 0 0 1 2.716188,-2.49162 m 5.572967,3.82726 c -0.95194,-0.49793 -1.477208,-1.14525 -1.480136,-1.82381 v 0 c 0,0.68344 0.526254,1.32002 1.481114,1.81893 M 99.2065,266.0761 c 0.01757,0.043 0.01757,0.043 0.02733,0.0635 a 1.9526866,1.9526866 0 0 0 0.77326,0.87285 h 0.008 a 1.8892242,1.8892242 0 0 0 0.95487,0.24311 c 1.43425,0 3.15066,-1.3044 4.2715,-3.24634 a 7.4055634,7.4055634 0 0 0 1.07398,-3.68081 2.5980493,2.5980493 0 0 0 -1.07398,-2.34323 l -0.22847,-0.11032 -0.041,-0.0146 a 0.32121692,0.32121692 0 0 0 -0.043,-0.0156 0.33683842,0.33683842 0 0 0 -0.041,-0.0137 l -0.0459,-0.0146 -0.0391,-0.0107 -0.0488,-0.0127 -0.0391,-0.008 -0.0517,-0.0107 -0.039,-0.007 -0.0527,-0.008 h -0.0429 l -0.0537,-0.006 h -0.43448 l -0.0615,0.006 h -0.0361 l -0.0664,0.01 h -0.0312 l -0.0742,0.0127 -0.0352,0.008 -0.0693,0.0156 -0.0342,0.008 -0.0722,0.0186 c -0.0732,0.0166 -0.50184,0.17672 -0.50184,0.17672 a 7.0618908,7.0618908 0 0 0 -3.059864,2.96808 c -0.123996,0.21382 -0.23725,0.43057 -0.339766,0.64829 -0.07713,0.16306 -0.148404,0.32513 -0.213819,0.48818 -0.04394,0.10935 -0.08494,0.21773 -0.123021,0.32708 -0.07127,0.20308 -0.132781,0.40615 -0.184526,0.60728 -0.01952,0.0742 -0.03808,0.1484 -0.05468,0.2226 a 0.26751806,0.26751806 0 0 1 -0.0127,0.0537 4.8934324,4.8934324 0 0 0 0.0059,2.38227 c 0,0 0.112281,0.31439 0.13083,0.35832 m -2.221179,-0.51941 1.38836,0.66879 0.377844,0.1816 0.292901,0.13962 c -0.0088,-0.0146 -0.01757,-0.0293 -0.02538,-0.0439 l -0.01757,-0.0303 c -0.0293,-0.0517 -0.0576,-0.10642 -0.08494,-0.16207 h -0.0078 l -0.0078,-0.0156 c -0.02733,-0.0596 -0.0537,-0.11912 -0.07811,-0.1816 -0.01563,-0.039 -0.0293,-0.0801 -0.04394,-0.12107 l -0.0088,-0.0293 a 6.6899044,6.6899044 0 0 1 0.914851,-5.14532 7.293284,7.293284 0 0 1 3.379129,-3.18386 l 0.14254,-0.0527 0.13572,-0.0439 0.0859,-0.0244 0.0605,-0.0166 0.0488,-0.0127 0.0976,-0.0224 0.0566,-0.0117 0.0976,-0.0176 0.0976,-0.0146 0.0635,-0.009 h 0.0342 l -0.56921,-0.27337 -0.37003,-0.17868 -0.9578,-0.45985 a 1.9761188,1.9761188 0 0 0 -0.72835,-0.13279 c -1.435225,0 -3.154566,1.30635 -4.276383,3.25025 a 7.478789,7.478789 0 0 0 -1.073983,3.59294 2.733761,2.733761 0 0 0 0.960726,2.36568 M 94.609122,252.4837 a 6.8002308,6.8002308 0 0 0 1.743744,-0.60338 1.8228329,1.8228329 0 0 0 0.169884,-0.0976 4.0596353,4.0596353 0 0 0 0.456934,-0.30169 1.865792,1.865792 0 0 0 0.854299,-1.43425 c 0,-0.68344 -0.526248,-1.32977 -1.481117,-1.82868 a 8.2364316,8.2364316 0 0 0 -3.726697,-0.80354 8.2364316,8.2364316 0 0 0 -3.726708,0.80354 3.7940696,3.7940696 0 0 0 -0.934357,0.66489 2.2778088,2.2778088 0 0 0 -0.240177,0.28216 l -0.180627,0.31633 v 0.01 c -0.01953,0.043 -0.03612,0.0859 -0.05077,0.12888 v 0 c -0.01368,0.042 -0.02538,0.0849 -0.03515,0.1279 v 0.0176 a 0.30266638,0.30266638 0 0 1 -0.0088,0.0488 c 0,0.0166 -0.0078,0.0439 -0.01074,0.0664 a 0.40030073,0.40030073 0 0 1 0.0097,-0.0674 0.53308341,0.53308341 0 0 1 -0.0097,0.0674 v 0.0254 a 1.2096893,1.2096893 0 0 0 -0.0068,0.13278 c 0,0.68344 0.528201,1.32197 1.48209,1.8199 a 8.2481476,8.2481476 0 0 0 3.727675,0.78889 v 0 l 0.01857,0.0137 h 0.396396 a 1.5777707,1.5777707 0 0 0 0.204052,-0.009 h 0.10935 c 0.09763,-0.006 0.18746,-0.0137 0.280212,-0.0234 h 0.0205 c 0.102517,-0.0107 0.204057,-0.0234 0.3056,-0.0371 z m -4.812403,9.29381 a 7.9942987,7.9942987 0 0 0 -0.868942,-2.16065 c -1.073976,-1.86579 -2.72595,-3.1243 -4.100644,-3.1243 a 1.7994006,1.7994006 0 0 0 -0.917761,0.2353 1.9604972,1.9604972 0 0 0 -0.850392,1.09058 3.0208061,3.0208061 0 0 0 -0.09764,0.35734 l -0.0615,0.37687 a 4.1914415,4.1914415 0 0 0 -0.02733,0.42861 7.1155898,7.1155898 0 0 0 1.02809,3.5373 c 1.073981,1.86676 2.726927,3.12429 4.100646,3.12429 a 1.8081876,1.8081876 0 0 0 0.917757,-0.23432 1.87165,1.87165 0 0 0 0.751785,-0.84649 2.7610988,2.7610988 0 0 0 0.18648,-0.5448 3.9434504,3.9434504 0 0 0 0.09763,-0.86211 5.3855091,5.3855091 0 0 0 -0.07029,-0.92069 z m -9.821033,-5.71747 0.02242,0.0625 a 2.479912,2.479912 0 0 0 0.722493,0.86309 l 1.080812,0.61314 0.0215,0.0127 v -0.10154 a 10.82667,10.82667 0 0 1 4.36621,-8.67872 h -0.0088 l -1.545558,-0.74397 v 0 a 0.3700341,0.3700341 0 0 0 -0.108371,-0.0127 2.809916,2.809916 0 0 0 -1.050546,0.30951 7.2181057,7.2181057 0 0 0 -2.571689,2.37348 8.5918207,8.5918207 0 0 0 -1.201878,3.72573 3.899515,3.899515 0 0 0 0.292901,1.57777"
           style="fill:#ffffff;stroke:none;stroke-width:0.292056;stroke-miterlimit:4;stroke-dasharray:none;stroke-opacity:1"
           id="path3" />
      </g>
    </g>
  </g>
</svg>
